<mxfile host="Electron" modified="2022-05-11T11:24:10.071Z" agent="5.0 (Windows NT 10.0; Win64; x64) AppleWebKit/537.36 (KHTML, like Gecko) draw.io/18.0.1 Chrome/100.0.4896.143 Electron/18.2.0 Safari/537.36" etag="RZcIC3wPVXbm96JcAYqX" version="18.0.1" type="device">
  <diagram id="EaGUkMu4GfU58-6FdVFR" name="Page-1">
    <mxGraphModel dx="981" dy="623" grid="1" gridSize="10" guides="1" tooltips="1" connect="1" arrows="1" fold="1" page="1" pageScale="1" pageWidth="850" pageHeight="1100" math="0" shadow="0">
      <root>
        <mxCell id="0" />
        <mxCell id="1" parent="0" />
        <mxCell id="pEy-u8KEZqNx0ne2hU9U-7" value="" style="edgeStyle=none;shape=connector;rounded=0;orthogonalLoop=1;jettySize=auto;html=1;labelBackgroundColor=default;fontFamily=Helvetica;fontSize=11;fontColor=default;endArrow=classic;strokeColor=default;" edge="1" parent="1" source="pEy-u8KEZqNx0ne2hU9U-12" target="pEy-u8KEZqNx0ne2hU9U-6">
          <mxGeometry relative="1" as="geometry" />
        </mxCell>
        <mxCell id="pEy-u8KEZqNx0ne2hU9U-9" value="" style="edgeStyle=none;shape=connector;rounded=0;orthogonalLoop=1;jettySize=auto;html=1;labelBackgroundColor=default;fontFamily=Helvetica;fontSize=11;fontColor=default;endArrow=classic;strokeColor=default;" edge="1" parent="1" source="pEy-u8KEZqNx0ne2hU9U-1" target="pEy-u8KEZqNx0ne2hU9U-8">
          <mxGeometry relative="1" as="geometry" />
        </mxCell>
        <mxCell id="pEy-u8KEZqNx0ne2hU9U-11" value="" style="edgeStyle=none;shape=connector;rounded=0;orthogonalLoop=1;jettySize=auto;html=1;labelBackgroundColor=default;fontFamily=Helvetica;fontSize=11;fontColor=default;endArrow=classic;strokeColor=default;" edge="1" parent="1" source="pEy-u8KEZqNx0ne2hU9U-12" target="pEy-u8KEZqNx0ne2hU9U-10">
          <mxGeometry relative="1" as="geometry" />
        </mxCell>
        <mxCell id="pEy-u8KEZqNx0ne2hU9U-13" style="edgeStyle=none;shape=connector;rounded=0;orthogonalLoop=1;jettySize=auto;html=1;labelBackgroundColor=default;fontFamily=Helvetica;fontSize=11;fontColor=default;endArrow=classic;strokeColor=default;" edge="1" parent="1" source="pEy-u8KEZqNx0ne2hU9U-1" target="pEy-u8KEZqNx0ne2hU9U-12">
          <mxGeometry relative="1" as="geometry" />
        </mxCell>
        <mxCell id="pEy-u8KEZqNx0ne2hU9U-1" value="&lt;font style=&quot;font-size: 14px;&quot;&gt;CLCodeOptions&lt;/font&gt;" style="rounded=1;whiteSpace=wrap;html=1;" vertex="1" parent="1">
          <mxGeometry x="420" y="320" width="110" height="30" as="geometry" />
        </mxCell>
        <mxCell id="pEy-u8KEZqNx0ne2hU9U-6" value="&lt;font style=&quot;font-size: 14px;&quot;&gt;&lt;font style=&quot;font-size: 14px;&quot; color=&quot;#009900&quot;&gt;Prog:Comp+Build&lt;/font&gt;&lt;br&gt;CLProgramCompOptions&lt;/font&gt;&lt;br&gt;&lt;br&gt;&lt;font style=&quot;font-size: 10px;&quot;&gt;&lt;span style=&quot;color: rgb(38, 67, 87); font-family: Consolas, &amp;quot;Liberation Mono&amp;quot;, Courier, monospace; text-align: start; background-color: rgb(255, 255, 255);&quot;&gt;&lt;font style=&quot;font-size: 10px;&quot;&gt;-D&lt;br&gt;&lt;/font&gt;&lt;/span&gt;&lt;span style=&quot;color: rgb(38, 67, 87); font-family: Consolas, &amp;quot;Liberation Mono&amp;quot;, Courier, monospace; text-align: start; background-color: rgb(255, 255, 255);&quot;&gt;-cl-single-precision-constant&lt;br&gt;&lt;/span&gt;&lt;span style=&quot;color: rgb(38, 67, 87); font-family: Consolas, &amp;quot;Liberation Mono&amp;quot;, Courier, monospace; text-align: start; background-color: rgb(255, 255, 255);&quot;&gt;-cl-fp32-correctly-rounded-divide-sqrt&lt;br&gt;&lt;/span&gt;&lt;span style=&quot;color: rgb(38, 67, 87); font-family: Consolas, &amp;quot;Liberation Mono&amp;quot;, Courier, monospace; text-align: start; background-color: rgb(255, 255, 255);&quot;&gt;-cl-opt-disable&lt;/span&gt;&lt;span style=&quot;color: rgb(38, 67, 87); font-family: Consolas, &amp;quot;Liberation Mono&amp;quot;, Courier, monospace; text-align: start; background-color: rgb(255, 255, 255);&quot;&gt;&lt;br&gt;&lt;/span&gt;&lt;span style=&quot;color: rgb(38, 67, 87); font-family: Consolas, &amp;quot;Liberation Mono&amp;quot;, Courier, monospace; text-align: start; background-color: rgb(255, 255, 255);&quot;&gt;-cl-uniform-work-group-size&lt;br&gt;&lt;/span&gt;&lt;span style=&quot;color: rgb(38, 67, 87); font-family: Consolas, &amp;quot;Liberation Mono&amp;quot;, Courier, monospace; text-align: start; background-color: rgb(255, 255, 255);&quot;&gt;-cl-mad-enable&lt;br&gt;&lt;/span&gt;&lt;span style=&quot;color: rgb(38, 67, 87); font-family: Consolas, &amp;quot;Liberation Mono&amp;quot;, Courier, monospace; text-align: start; background-color: rgb(255, 255, 255);&quot;&gt;-w&lt;br&gt;&lt;/span&gt;&lt;span style=&quot;color: rgb(38, 67, 87); font-family: Consolas, &amp;quot;Liberation Mono&amp;quot;, Courier, monospace; text-align: start; background-color: rgb(255, 255, 255);&quot;&gt;-Werror&lt;br&gt;&lt;/span&gt;&lt;span style=&quot;color: rgb(38, 67, 87); font-family: Consolas, &amp;quot;Liberation Mono&amp;quot;, Courier, monospace; text-align: start; background-color: rgb(255, 255, 255);&quot;&gt;-cl-std=&lt;br&gt;&lt;/span&gt;&lt;span style=&quot;color: rgb(38, 67, 87); font-family: Consolas, &amp;quot;Liberation Mono&amp;quot;, Courier, monospace; text-align: start; background-color: rgb(255, 255, 255);&quot;&gt;-cl-kernel-arg-info&lt;br&gt;&lt;/span&gt;-g&lt;/font&gt;" style="rounded=1;whiteSpace=wrap;html=1;" vertex="1" parent="1">
          <mxGeometry x="360" y="590" width="220" height="220" as="geometry" />
        </mxCell>
        <mxCell id="pEy-u8KEZqNx0ne2hU9U-8" value="&lt;font style=&quot;&quot; color=&quot;#009900&quot;&gt;&lt;font style=&quot;font-size: 14px;&quot;&gt;Lib:Link&lt;/font&gt;&lt;br&gt;&lt;/font&gt;&lt;font style=&quot;&quot;&gt;&lt;font style=&quot;font-size: 14px;&quot;&gt;CLCodeLibOptions&lt;/font&gt;&lt;br&gt;&lt;br&gt;&lt;span style=&quot;font-size: 10px; color: rgb(38, 67, 87); font-family: Consolas, &amp;quot;Liberation Mono&amp;quot;, Courier, monospace; text-align: start; background-color: rgb(255, 255, 255);&quot;&gt;-enable-link-options&lt;/span&gt;&lt;/font&gt;" style="rounded=1;whiteSpace=wrap;html=1;" vertex="1" parent="1">
          <mxGeometry x="220" y="440" width="130" height="70" as="geometry" />
        </mxCell>
        <mxCell id="pEy-u8KEZqNx0ne2hU9U-10" value="&lt;font style=&quot;font-size: 14px;&quot;&gt;&lt;font style=&quot;font-size: 14px;&quot; color=&quot;#009900&quot;&gt;Prog:Link&lt;/font&gt;&lt;br&gt;CLProgramLinkOptions&lt;br&gt;&lt;/font&gt;" style="rounded=1;whiteSpace=wrap;html=1;" vertex="1" parent="1">
          <mxGeometry x="670" y="600" width="160" height="40" as="geometry" />
        </mxCell>
        <mxCell id="pEy-u8KEZqNx0ne2hU9U-12" value="&lt;font style=&quot;font-size: 14px;&quot;&gt;CLProgramOptions&lt;/font&gt;&lt;br&gt;&lt;font style=&quot;font-size: 10px;&quot;&gt;&lt;code style=&quot;box-sizing: border-box; font-family: Consolas, &amp;quot;Liberation Mono&amp;quot;, Courier, monospace; color: rgb(38, 67, 87); border-radius: 0px; padding: 0px; background-color: rgb(255, 255, 255); line-height: inherit; overflow-wrap: break-word; text-align: start;&quot;&gt;&lt;br&gt;-cl-denorms-are-zero&lt;/code&gt;&lt;br style=&quot;box-sizing: border-box; color: rgb(34, 34, 34); font-family: Noto, sans-serif; text-align: start; background-color: rgb(255, 255, 255);&quot;&gt;&lt;code style=&quot;box-sizing: border-box; font-family: Consolas, &amp;quot;Liberation Mono&amp;quot;, Courier, monospace; color: rgb(38, 67, 87); border-radius: 0px; padding: 0px; background-color: rgb(255, 255, 255); line-height: inherit; overflow-wrap: break-word; text-align: start;&quot;&gt;-cl-no-signed-zeros&lt;/code&gt;&lt;br style=&quot;box-sizing: border-box; color: rgb(34, 34, 34); font-family: Noto, sans-serif; text-align: start; background-color: rgb(255, 255, 255);&quot;&gt;&lt;code style=&quot;box-sizing: border-box; font-family: Consolas, &amp;quot;Liberation Mono&amp;quot;, Courier, monospace; color: rgb(38, 67, 87); border-radius: 0px; padding: 0px; background-color: rgb(255, 255, 255); line-height: inherit; overflow-wrap: break-word; text-align: start;&quot;&gt;-cl-unsafe-math-optimizations&lt;/code&gt;&lt;br style=&quot;box-sizing: border-box; color: rgb(34, 34, 34); font-family: Noto, sans-serif; text-align: start; background-color: rgb(255, 255, 255);&quot;&gt;&lt;code style=&quot;box-sizing: border-box; font-family: Consolas, &amp;quot;Liberation Mono&amp;quot;, Courier, monospace; color: rgb(38, 67, 87); border-radius: 0px; padding: 0px; background-color: rgb(255, 255, 255); line-height: inherit; overflow-wrap: break-word; text-align: start;&quot;&gt;-cl-finite-math-only&lt;/code&gt;&lt;br style=&quot;box-sizing: border-box; color: rgb(34, 34, 34); font-family: Noto, sans-serif; text-align: start; background-color: rgb(255, 255, 255);&quot;&gt;&lt;code style=&quot;box-sizing: border-box; font-family: Consolas, &amp;quot;Liberation Mono&amp;quot;, Courier, monospace; color: rgb(38, 67, 87); border-radius: 0px; padding: 0px; background-color: rgb(255, 255, 255); line-height: inherit; overflow-wrap: break-word; text-align: start;&quot;&gt;-cl-fast-relaxed-math&lt;/code&gt;&lt;br style=&quot;box-sizing: border-box; color: rgb(34, 34, 34); font-family: Noto, sans-serif; text-align: start; background-color: rgb(255, 255, 255);&quot;&gt;&lt;code style=&quot;box-sizing: border-box; font-family: Consolas, &amp;quot;Liberation Mono&amp;quot;, Courier, monospace; color: rgb(38, 67, 87); border-radius: 0px; padding: 0px; background-color: rgb(255, 255, 255); line-height: inherit; overflow-wrap: break-word; text-align: start;&quot;&gt;-cl-no-subgroup-ifp&lt;/code&gt;&lt;/font&gt;" style="rounded=1;whiteSpace=wrap;html=1;fontFamily=Helvetica;fontSize=11;fontColor=default;" vertex="1" parent="1">
          <mxGeometry x="545" y="400" width="170" height="120" as="geometry" />
        </mxCell>
      </root>
    </mxGraphModel>
  </diagram>
</mxfile>
